<?xml version="1.0" encoding="iso-8859-1"?>
<!-- Generator: Adobe Illustrator 19.0.0, SVG Export Plug-In . SVG Version: 6.00 Build 0)  -->
<svg version="1.1" id="Layer_1" xmlns="http://www.w3.org/2000/svg" xmlns:xlink="http://www.w3.org/1999/xlink" x="0px" y="0px"
	 viewBox="0 0 363.938 363.938" style="enable-background:new 0 0 363.938 363.938;" xml:space="preserve">
<g>
	<g>
		<rect x="269.603" y="192.212" style="fill:#7D868C;" width="10" height="135.488"/>
		<g>
			<path style="fill:#7D868C;" d="M159.104,305.464c0,4.212-3.416,7.626-7.627,7.626s-7.625-3.414-7.625-7.626v-28.186h15.252
				V305.464z"/>
			<path style="fill:#7D868C;" d="M126.602,284.382c0,5.108,4.143,9.25,9.25,9.25h31.25c5.109,0,9.25-4.142,9.25-9.25H126.602z"/>
		</g>
		<path style="fill:#7D868C;" d="M176.352,324.339c0-5.108-4.141-9.25-9.25-9.25h-31.25c-5.107,0-9.25,4.142-9.25,9.25H176.352z"/>
		<g>
			<path style="fill:#7D868C;" d="M328.853,305.464c0,4.212-3.414,7.626-7.625,7.626s-7.627-3.414-7.627-7.626v-28.186h15.252
				V305.464z"/>
			<path style="fill:#7D868C;" d="M296.353,284.382c0,5.108,4.141,9.25,9.25,9.25h31.25c5.107,0,9.25-4.142,9.25-9.25H296.353z"/>
		</g>
		<rect x="25.646" y="234.673" style="fill:#C3C6C8;" width="338.291" height="52.914"/>
		<polygon style="opacity:0.2;fill:#FFFFFF;enable-background:new    ;" points="142.381,234.673 89.465,287.587 181.662,287.587 
			234.578,234.673 		"/>
		<polygon style="opacity:0.2;fill:#FFFFFF;enable-background:new    ;" points="329.232,234.673 276.316,287.587 333.344,287.587 
			363.938,256.993 363.938,234.673 		"/>
		<g>
			<path style="fill:#AF8400;" d="M54.615,190.836c0.268-2.737-1.762-4.977-4.512-4.977h-38.91c-2.75,0-4.781,2.239-4.514,4.977
				l4.785,40.861c0.269,2.737,2.738,4.977,5.488,4.977h27.389c2.75,0,5.221-2.239,5.488-4.977L54.615,190.836z"/>
			<path style="fill:#AF8400;" d="M61.297,179.411c0-2.75-2.25-5-5-5H5c-2.75,0-5,2.25-5,5v7.91c0,2.75,2.25,5,5,5h51.297
				c2.75,0,5-2.25,5-5V179.411z"/>
		</g>
		<g>
			<path style="fill:#7D868C;" d="M259.267,326.339c0,5.5-4.5,10-10,10h-43c-5.5,0-10-4.5-10-10v-53.332
				c0-5.5,2.148-13.954,4.773-18.788l4.213-7.758c2.625-4.834,9.271-8.788,14.771-8.788h15.484c5.5,0,12.148,3.954,14.773,8.788
				l4.213,7.758c2.625,4.834,4.771,13.288,4.771,18.788v53.332H259.267z"/>
			<g>
				<circle style="fill:#C3C6C8;" cx="227.768" cy="260.341" r="9.834"/>
				<path style="fill:#333E48;" d="M234.723,253.387c-0.459-0.457-0.951-0.857-1.469-1.205l-13.645,13.645
					c0.348,0.517,0.748,1.009,1.205,1.468c0.457,0.457,0.951,0.856,1.467,1.205l13.645-13.646
					C235.578,254.337,235.18,253.844,234.723,253.387z"/>
			</g>
		</g>
		<g>
			<path style="fill:#7D868C;" d="M351.103,225.451c0-2.2-1.801-4-4-4h-51.75c-2.201,0-4,1.8-4,4v5.223c0,2.2,1.799,4,4,4h51.75
				c2.199,0,4-1.8,4-4V225.451z"/>
			<path style="fill:#7D868C;" d="M351.103,188.978c0-2.2-1.801-4-4-4h-51.75c-2.201,0-4,1.8-4,4v5.223c0,2.2,1.799,4,4,4h51.75
				c2.199,0,4-1.8,4-4V188.978z"/>
			<rect x="313.603" y="192.212" style="fill:#7D868C;" width="15.25" height="35.228"/>
		</g>
		<path style="fill:#7D868C;" d="M346.103,324.339c0-5.108-4.143-9.25-9.25-9.25h-31.25c-5.109,0-9.25,4.142-9.25,9.25H346.103z"/>
		<path style="fill:#AF8400;" d="M25.646,348.534v-15.195c0-5.5,4.5-10,10-10h318.291c5.5,0,10,4.5,10,10v15.195H25.646z"/>
	</g>
	<g>
		<g>
			<path style="fill:#C3C6C8;" d="M161.604,15.403c52.738,0,95.492,42.754,95.492,95.491c0,23.767-8.703,45.486-23.066,62.198
				c4.318,12.429,12.285,23.148,22.65,30.84c-6.578,2.248-13.627,3.487-20.965,3.487c-12.564,0-24.283-3.586-34.217-9.769
				c-12.145,5.596-25.648,8.739-39.895,8.739c-52.744,0-95.498-42.754-95.498-95.496C66.105,58.157,108.859,15.403,161.604,15.403z"
				/>
		</g>
		<g>
			<circle style="fill:#333E48;" cx="111.465" cy="70.578" r="9"/>
			<circle style="fill:#333E48;" cx="141.465" cy="70.578" r="9"/>
			<circle style="fill:#333E48;" cx="171.463" cy="70.578" r="9"/>
			<circle style="fill:#333E48;" cx="201.463" cy="70.578" r="9"/>
			<rect x="102.465" y="91.578" style="fill:#333E48;" width="36.5" height="9"/>
			<circle style="fill:#333E48;" cx="111.465" cy="121.911" r="9"/>
			<rect x="131.215" y="117.411" style="fill:#333E48;" width="36.5" height="9"/>
			<circle style="fill:#333E48;" cx="187.463" cy="121.911" r="9"/>
			<circle style="fill:#333E48;" cx="217.463" cy="121.911" r="9"/>
			<rect x="150.465" y="91.578" style="fill:#333E48;" width="36.5" height="9"/>
			<rect x="198.463" y="91.578" style="fill:#333E48;" width="36.5" height="9"/>
			<circle style="fill:#333E48;" cx="111.465" cy="152.245" r="9"/>
			<rect x="131.215" y="147.745" style="fill:#333E48;" width="36.5" height="9"/>
		</g>
	</g>
</g>
<g>
</g>
<g>
</g>
<g>
</g>
<g>
</g>
<g>
</g>
<g>
</g>
<g>
</g>
<g>
</g>
<g>
</g>
<g>
</g>
<g>
</g>
<g>
</g>
<g>
</g>
<g>
</g>
<g>
</g>
</svg>
